<?xml version="1.0" encoding="UTF-8"?>
<svg version="1.1" xmlns="http://www.w3.org/2000/svg" width="500" height="500">
<path d="M0 0 C8.99712847 3.53458619 15.00069015 16.46340601 18.85546875 24.94677734 C31.10979337 53.07419821 34.3143079 85.64130007 24 115 C23.77795898 115.65339355 23.55591797 116.30678711 23.32714844 116.97998047 C17.45950913 134.15916928 17.45950913 134.15916928 12 141 C11.34 141 10.68 141 10 141 C9.731875 141.9075 9.46375 142.815 9.1875 143.75 C8.09868368 146.72991834 7.13608899 148.68590359 5 151 C4.34 151 3.68 151 3 151 C2.6596875 151.804375 2.6596875 151.804375 2.3125 152.625 C-3.29277537 162.76787924 -13.73342203 169.52407736 -23 176 C-23.91652344 176.64582031 -24.83304688 177.29164063 -25.77734375 177.95703125 C-37.19539881 185.19538616 -49.77379399 190.29591339 -63 193 C-64.17357056 193.26055176 -64.17357056 193.26055176 -65.37084961 193.52636719 C-73.10962846 195.12234364 -80.67576731 195.38452564 -88.5625 195.375 C-90.54189575 195.37367065 -90.54189575 195.37367065 -92.5612793 195.37231445 C-102.86803564 195.24793889 -112.16523014 194.00506857 -122 191 C-122.91265625 190.73832031 -123.8253125 190.47664062 -124.765625 190.20703125 C-130.0313736 188.58611204 -135.0016207 186.29840005 -140 184 C-141.68654592 183.24785699 -143.37402077 182.49779284 -145.0625 181.75 C-146.375 181.16666667 -147.6875 180.58333333 -149 180 C-149 179.34 -149 178.68 -149 178 C-149.680625 177.79375 -150.36125 177.5875 -151.0625 177.375 C-154.97009851 175.54591134 -157.83857939 172.89720966 -161 170 C-159.42530227 165.72005233 -156.16708335 163.30552481 -152.75 160.5 C-151.90888672 159.79037109 -151.90888672 159.79037109 -151.05078125 159.06640625 C-149.38899352 157.6809435 -147.70181726 156.33585656 -146 155 C-144.97390625 154.1853125 -143.9478125 153.370625 -142.890625 152.53125 C-140 151 -140 151 -137.47265625 151.5703125 C-136.65667969 152.04210937 -135.84070313 152.51390625 -135 153 C-133.66775391 153.67675781 -133.66775391 153.67675781 -132.30859375 154.3671875 C-131.36113281 154.86476563 -130.41367188 155.36234375 -129.4375 155.875 C-108.85220336 166.2307934 -84.11567389 168.82243045 -62.00878906 161.70214844 C-52.87327683 158.50893828 -44.7849109 154.76519589 -37 149 C-35.6696875 148.2265625 -35.6696875 148.2265625 -34.3125 147.4375 C-31.8830038 146.04869206 -31.8830038 146.04869206 -29.8125 143.8125 C-29.214375 143.214375 -28.61625 142.61625 -28 142 C-27.34 142 -26.68 142 -26 142 C-26 141.34 -26 140.68 -26 140 C-24.86240525 138.82793268 -23.718827 137.66125484 -22.55078125 136.51953125 C-15.38694274 129.5000522 -11.13763923 122.08437127 -7 113 C-6.47148437 111.845 -5.94296875 110.69 -5.3984375 109.5 C1.07730799 93.29254761 1.39322382 74.90727705 -2 58 C-2.23332031 56.82695312 -2.46664062 55.65390625 -2.70703125 54.4453125 C-4.65942212 46.01169713 -7.72399469 39.07942555 -12.09008789 31.63378906 C-15.06903127 26.45162384 -15.06903127 26.45162384 -14.68261719 23.92358398 C-13.83521137 21.53563318 -12.69767099 19.44722122 -11.4375 17.25 C-10.98246094 16.45078125 -10.52742187 15.6515625 -10.05859375 14.828125 C-9.53458984 13.92320312 -9.53458984 13.92320312 -9 13 C-8.34 13 -7.68 13 -7 13 C-6.9175 12.484375 -6.835 11.96875 -6.75 11.4375 C-5.67859775 7.95544268 -3.86476395 5.12799115 -2 2 C-1.34 2 -0.68 2 0 2 C0 1.34 0 0.68 0 0 Z " fill="#F3F3F3" transform="translate(339,177)"/>
<path d="M0 0 C0.9384375 0.01675781 1.876875 0.03351563 2.84375 0.05078125 C9.98168498 0.37272419 16.75116323 1.68979021 23.6875 3.3125 C24.9876001 3.61353638 24.9876001 3.61353638 26.31396484 3.9206543 C35.69640164 6.21863013 44.24548362 9.90332414 52.75 14.4375 C53.46542969 14.80681641 54.18085938 15.17613281 54.91796875 15.55664062 C59.43431679 17.94740468 63.1844057 20.59836168 67 24 C66.19806339 29.3541062 62.14313601 31.92782556 58 35 C56.34089996 35.68528045 54.67667436 36.35891863 53 37 C51.90833725 38.93330603 51.90833725 38.93330603 51 41 C49.1875 42.8125 49.1875 42.8125 47 44 C42.62794985 43.57046525 39.28019963 41.72907079 35.4375 39.6875 C13.23832618 28.28800295 -11.49556818 27.0722362 -35.1875 34.6875 C-42.51126441 37.15542397 -48.73947439 40.42670824 -55 45 C-60.671875 48.890625 -60.671875 48.890625 -64 50 C-64.68927554 51.32178722 -65.35451438 52.6562848 -66 54 C-67.010625 54.804375 -68.02125 55.60875 -69.0625 56.4375 C-72.66767304 59.38235713 -75.25605062 62.87596986 -77.875 66.6875 C-78.26824463 67.25847412 -78.66148926 67.82944824 -79.06665039 68.41772461 C-80.75546273 70.93112486 -82.03744543 73.11233629 -83 76 C-83.66 76 -84.32 76 -85 76 C-85.10441406 76.51304687 -85.20882812 77.02609375 -85.31640625 77.5546875 C-86.04933984 80.17649567 -87.07126721 82.61596578 -88.12084961 85.12426758 C-96.14379966 104.77989557 -96.42430776 129.02380502 -89 149 C-86.18936291 155.58107528 -82.9715709 162.04264364 -79 168 C-79.375 170.6875 -79.375 170.6875 -80 173 C-80.66 173 -81.32 173 -82 173 C-82.20625 173.804375 -82.4125 174.60875 -82.625 175.4375 C-84.43381891 180.12398537 -87.13535536 183.90034274 -90 188 C-90.79501959 189.18525787 -91.58723314 190.37240936 -92.375 191.5625 C-93.179375 192.7690625 -93.179375 192.7690625 -94 194 C-95.6953125 193.8984375 -95.6953125 193.8984375 -98 193 C-99.78910062 190.90385901 -101.3335452 188.89090604 -102.875 186.625 C-103.31626221 185.98506104 -103.75752441 185.34512207 -104.2121582 184.68579102 C-105.49394553 182.80249718 -106.75165684 180.90558517 -108 179 C-108.86044922 177.69482422 -108.86044922 177.69482422 -109.73828125 176.36328125 C-123.06890316 154.04976048 -127.92554668 123.12377934 -122.6953125 97.74609375 C-121.26997408 92.11680776 -119.70329677 86.55148577 -118 81 C-117.71382812 79.989375 -117.42765625 78.97875 -117.1328125 77.9375 C-113.62239143 66.25680688 -106.92512004 54.29595161 -99 45 C-98.34 45 -97.68 45 -97 45 C-96.34 43.35 -95.68 41.7 -95 40 C-94.34 40 -93.68 40 -93 40 C-92.773125 39.4225 -92.54625 38.845 -92.3125 38.25 C-90.65238361 35.40408619 -88.60812043 34.00158079 -86 32 C-85.2471875 31.22398437 -84.494375 30.44796875 -83.71875 29.6484375 C-61.77580444 8.27298191 -30.0128385 -0.86575496 0 0 Z " fill="#F3F3F3" transform="translate(255,135)"/>
<path d="M0 0 C0.99 0.33 1.98 0.66 3 1 C-0.69087307 6.94034009 -4.43785206 12.7401492 -8.71875 18.2734375 C-10.16439472 20.15531752 -10.16439472 20.15531752 -11.75 23 C-12.1625 23.66 -12.575 24.32 -13 25 C-13.66 25 -14.32 25 -15 25 C-15.22429687 25.68835938 -15.44859375 26.37671875 -15.6796875 27.0859375 C-17.32080556 30.70805013 -19.62784129 33.57076009 -22.125 36.625 C-23.12523204 37.87246939 -24.12391732 39.12118048 -25.12109375 40.37109375 C-25.85755127 41.29317627 -25.85755127 41.29317627 -26.60888672 42.23388672 C-29.87902836 46.38555478 -32.92238146 50.70520855 -36 55 C-37.39459489 56.91756797 -38.7904266 58.83423704 -40.1875 60.75 C-41.1775 62.11705078 -41.1775 62.11705078 -42.1875 63.51171875 C-43.25835061 64.98183047 -44.33812505 66.44562676 -45.4375 67.89453125 C-48.96478729 72.60125522 -51.4900567 77.69173694 -54 83 C-54.66 83 -55.32 83 -56 83 C-56.12383057 83.56154785 -56.24766113 84.1230957 -56.37524414 84.70166016 C-57.04987707 87.1834868 -57.96519927 89.41743769 -58.99609375 91.7734375 C-59.38990234 92.6809375 -59.78371094 93.5884375 -60.18945312 94.5234375 C-60.60130859 95.46445313 -61.01316406 96.40546875 -61.4375 97.375 C-65.46699157 106.59254153 -68.34325444 114.9265908 -69.6796875 124.8984375 C-70.39340424 129.472713 -71.12100022 132.08522976 -75 135 C-78.52918376 136.54939775 -82.03718062 137.18900028 -85.8125 137.8125 C-104.61521868 141.13363238 -122.91721588 148.40960636 -137.5625 160.9375 C-140 163 -140 163 -142 163 C-142 163.66 -142 164.32 -142 165 C-143.6376272 166.45402342 -145.33734196 167.83848678 -147.0625 169.1875 C-151.07039337 172.39073959 -154.77608335 175.65032133 -158.33984375 179.33203125 C-160.70174084 181.70504315 -163.22879264 183.86401924 -165.765625 186.046875 C-168.38788024 188.33905615 -170.9402698 190.70075998 -173.5 193.0625 C-177.16650735 196.40667703 -180.85482887 199.52579356 -184.88671875 202.4140625 C-188.60196622 205.20221495 -192.07411045 208.29700695 -195.58203125 211.33984375 C-196.37996094 211.88769531 -197.17789063 212.43554688 -198 213 C-198.99 212.67 -199.98 212.34 -201 212 C-194.89534934 201.49016186 -187.87203711 191.75523205 -180.64379883 182.0012207 C-178.11507728 178.63159354 -178.11507728 178.63159354 -176 175 C-175.34 175 -174.68 175 -174 175 C-173.34 173.35 -172.68 171.7 -172 170 C-171.34 170 -170.68 170 -170 170 C-169.75121094 169.278125 -169.50242188 168.55625 -169.24609375 167.8125 C-167.8808399 164.7310493 -166.22503259 162.57732003 -164.0625 160 C-161.92926249 157.44808971 -160.04006637 155.06917934 -158.37109375 152.1875 C-157.91863281 151.465625 -157.46617187 150.74375 -157 150 C-156.34 150 -155.68 150 -155 150 C-154.75636719 149.48566406 -154.51273438 148.97132813 -154.26171875 148.44140625 C-152.58186286 145.19091111 -150.70029475 142.06973852 -148.8125 138.9375 C-148.41321289 138.27210205 -148.01392578 137.6067041 -147.60253906 136.92114258 C-145.21812894 132.96441094 -142.76791491 129.06121525 -140.25 125.1875 C-132.36090292 112.7617166 -128.31186347 99.96827906 -126.8828125 85.33203125 C-125.55398811 81.82181816 -123.11820643 79.90228838 -120 78 C-116.4765625 76.8125 -116.4765625 76.8125 -112.625 76 C-111.19843785 75.67397114 -109.772672 75.34444157 -108.34765625 75.01171875 C-107.62465332 74.84591309 -106.90165039 74.68010742 -106.15673828 74.50927734 C-82.59480768 68.94552511 -64.37428938 56.48528958 -46.64868164 40.28955078 C-45 39 -45 39 -43 39 C-42.79117188 38.45472656 -42.58234375 37.90945312 -42.3671875 37.34765625 C-40.49235519 34.12830134 -37.88007511 31.8853545 -35.125 29.4375 C-34.59519531 28.95603516 -34.06539062 28.47457031 -33.51953125 27.97851562 C-25.78268999 21 -25.78268999 21 -23 21 C-22.76152344 20.41605469 -22.52304687 19.83210938 -22.27734375 19.23046875 C-20.73100726 16.53029096 -19.03332615 15.19823452 -16.5625 13.3125 C-11.68579116 9.55573302 -7.003767 5.61620714 -2.34765625 1.58984375 C-1.18556641 0.80287109 -1.18556641 0.80287109 0 0 Z " fill="#F3F3F4" transform="translate(349,147)"/>
<path d="M0 0 C0.99 0.33 1.98 0.66 3 1 C-0.69087307 6.94034009 -4.43785206 12.7401492 -8.71875 18.2734375 C-10.16439472 20.15531752 -10.16439472 20.15531752 -11.75 23 C-12.1625 23.66 -12.575 24.32 -13 25 C-13.66 25 -14.32 25 -15 25 C-15.433125 26.2065625 -15.433125 26.2065625 -15.875 27.4375 C-17 30 -17 30 -19 31 C-20.65 28.03 -22.3 25.06 -24 22 C-24.33 22.99 -24.66 23.98 -25 25 C-26.70703125 26.53515625 -26.70703125 26.53515625 -28.8125 28.0625 C-29.49957031 28.56910156 -30.18664062 29.07570312 -30.89453125 29.59765625 C-32.87417253 30.91619283 -34.84948259 31.98998171 -37 33 C-33.33133644 28.4857225 -29.66465192 24.49848894 -25 21 C-24.34 21 -23.68 21 -23 21 C-22.76152344 20.41605469 -22.52304687 19.83210938 -22.27734375 19.23046875 C-20.73100726 16.53029096 -19.03332615 15.19823452 -16.5625 13.3125 C-11.68579116 9.55573302 -7.003767 5.61620714 -2.34765625 1.58984375 C-1.57292969 1.06519531 -0.79820312 0.54054687 0 0 Z " fill="#E1E1E1" transform="translate(349,147)"/>
<path d="M0 0 C0.99 0.33 1.98 0.66 3 1 C-6.84466019 16.84466019 -6.84466019 16.84466019 -12 22 C-13.15837626 17.94568308 -12.83691257 15.78187881 -11 12 C-11.66 11.67 -12.32 11.34 -13 11 C-11.04010705 9.26868018 -9.07522716 7.54374869 -7.1015625 5.828125 C-5.45468984 4.39552945 -3.81892858 2.95015874 -2.1875 1.5 C-1.1046875 0.7575 -1.1046875 0.7575 0 0 Z " fill="#CDCDCD" transform="translate(349,147)"/>
<path d="M0 0 C0.66 0.33 1.32 0.66 2 1 C2 1.99 2 2.98 2 4 C1.34 4 0.68 4 0 4 C-0.433125 4.928125 -0.433125 4.928125 -0.875 5.875 C-2 8 -2 8 -4 10 C-3.938125 10.969375 -3.87625 11.93875 -3.8125 12.9375 C-3.874375 13.948125 -3.93625 14.95875 -4 16 C-6.3125 17.6875 -6.3125 17.6875 -9 19 C-9.556875 19.556875 -10.11375 20.11375 -10.6875 20.6875 C-11.120625 21.120625 -11.55375 21.55375 -12 22 C-12.66 22 -13.32 22 -14 22 C-12.4085285 17.07310919 -9.52332215 13.38610133 -6.4375 9.3125 C-5.43495214 7.97619414 -4.43359272 6.63899559 -3.43359375 5.30078125 C-2.99072021 4.71466064 -2.54784668 4.12854004 -2.09155273 3.5246582 C-0.92281806 1.97650186 -0.92281806 1.97650186 0 0 Z " fill="#AEAEAE" transform="translate(173,322)"/>
<path d="M0 0 C0.33 0.99 0.66 1.98 1 3 C0.34 3 -0.32 3 -1 3 C-1.33 3.99 -1.66 4.98 -2 6 C-3.70703125 7.53515625 -3.70703125 7.53515625 -5.8125 9.0625 C-6.49957031 9.56910156 -7.18664062 10.07570312 -7.89453125 10.59765625 C-9.87417253 11.91619283 -11.84948259 12.98998171 -14 14 C-10.33133644 9.4857225 -6.66465192 5.49848894 -2 2 C-1.34 2 -0.68 2 0 2 C0 1.34 0 0.68 0 0 Z " fill="#AAAAAA" transform="translate(326,166)"/>
<path d="M0 0 C0.99 0.33 1.98 0.66 3 1 C5.63804589 0.60602665 5.63804589 0.60602665 8 0 C7.25 2.4375 7.25 2.4375 6 5 C3.875 5.8125 3.875 5.8125 2 6 C1.01 4.35 0.02 2.7 -1 1 C-0.67 0.67 -0.34 0.34 0 0 Z " fill="#BEBEBE" transform="translate(156,323)"/>
<path d="M0 0 C1.32 0.66 2.64 1.32 4 2 C1.525 7.94 1.525 7.94 -1 14 C-2.05541976 10.83374072 -1.9777654 9.14523064 -1.625 5.875 C-1.53476562 4.98554688 -1.44453125 4.09609375 -1.3515625 3.1796875 C-1 1 -1 1 0 0 Z " fill="#B0AFAF" transform="translate(284,241)"/>
<path d="M0 0 C0.66 0 1.32 0 2 0 C1.45018084 6.04801071 0.09570426 11.30601106 -2 17 C-3.08054231 13.32933422 -2.65430878 10.76227546 -2 7 C-2.33 6.34 -2.66 5.68 -3 5 C-1.6875 2.375 -1.6875 2.375 0 0 Z " fill="#B5B5B8" transform="translate(364,278)"/>
<path d="M0 0 C7.17307692 8.96634615 7.17307692 8.96634615 6.75 13.9375 C6.5025 14.618125 6.255 15.29875 6 16 C1.96190932 11.38503922 0 6.07147123 0 0 Z " fill="#ABABAB" transform="translate(169,292)"/>
<path d="M0 0 C4.75481646 0.57634139 7.97048212 2.55068521 12 5 C9 7 9 7 6 7 C6 6.01 6 5.02 6 4 C4.68 4.33 3.36 4.66 2 5 C1.34 3.35 0.68 1.7 0 0 Z " fill="#BEBEC0" transform="translate(292,143)"/>
<path d="M0 0 C0.33 0.66 0.66 1.32 1 2 C3.02463255 2.65213292 3.02463255 2.65213292 5 3 C0.60546875 7.00390625 0.60546875 7.00390625 -1 8 C-1.99 7.67 -2.98 7.34 -4 7 C-2.68 4.69 -1.36 2.38 0 0 Z " fill="#A0A0A0" transform="translate(152,352)"/>
<path d="M0 0 C-0.33 0.66 -0.66 1.32 -1 2 C-1.66 2 -2.32 2 -3 2 C-3.268125 2.598125 -3.53625 3.19625 -3.8125 3.8125 C-4.98493467 5.97224808 -6.19369282 7.35790256 -8 9 C-8.36190476 3.57142857 -8.36190476 3.57142857 -6.8125 1.125 C-4.43963721 -0.34781139 -2.74086056 -0.22223194 0 0 Z " fill="#B1B1B1" transform="translate(345,326)"/>
<path d="M0 0 C2.475 0.99 2.475 0.99 5 2 C0.25 6.875 0.25 6.875 -2 8 C-1.47731534 5.23723823 -0.89130413 2.6739124 0 0 Z " fill="#CBCBCB" transform="translate(317,345)"/>
<path d="M0 0 C0 3.69418201 -1.28179295 5.77836178 -3 9 C-3.99 8.34 -4.98 7.68 -6 7 C-4.60667426 3.63279613 -3.0210714 2.0140476 0 0 Z " fill="#ABABAB" transform="translate(184,340)"/>
<path d="M0 0 C2.97 0.495 2.97 0.495 6 1 C5.01 2.485 5.01 2.485 4 4 C4.31506627 7.14221967 4.31506627 7.14221967 5 10 C4.34 10 3.68 10 3 10 C2.49596232 8.70990357 1.99690074 7.41786211 1.5 6.125 C1.2215625 5.40570313 0.943125 4.68640625 0.65625 3.9453125 C0 2 0 2 0 0 Z " fill="#C5C5C5" transform="translate(137,289)"/>
<path d="M0 0 C1.79068573 2.6860286 2.66055791 4.6626589 3.625 7.6875 C3.88539063 8.49574219 4.14578125 9.30398437 4.4140625 10.13671875 C4.60742188 10.75160156 4.80078125 11.36648437 5 12 C4.01 11.67 3.02 11.34 2 11 C2 9.68 2 8.36 2 7 C1.01 7 0.02 7 -1 7 C-0.67 4.69 -0.34 2.38 0 0 Z " fill="#B0B0B0" transform="translate(356,200)"/>
<path d="M0 0 C0.99 0.33 1.98 0.66 3 1 C2 2 1 3 0 4 C-0.515625 4.556875 -1.03125 5.11375 -1.5625 5.6875 C-3 7 -3 7 -5 7 C-3.75023244 3.34683329 -3.32901247 2.21934164 0 0 Z " fill="#D0D0D0" transform="translate(164,337)"/>
<path d="M0 0 C0.33 1.32 0.66 2.64 1 4 C-1.31 5.98 -3.62 7.96 -6 10 C-4.80655062 5.22620248 -3.20354235 3.61425291 0 0 Z " fill="#C1C1C1" transform="translate(189,302)"/>
<path d="M0 0 C0.99 0.33 1.98 0.66 3 1 C1.35 3.64 -0.3 6.28 -2 9 C-3.04940314 5.85179059 -3.066855 5.00659136 -2 2 C-1.34 1.34 -0.68 0.68 0 0 Z " fill="#A2A2A2" transform="translate(349,147)"/>
<path d="M0 0 C0.66 0.33 1.32 0.66 2 1 C2 1.99 2 2.98 2 4 C1.34 4 0.68 4 0 4 C-0.28875 4.639375 -0.5775 5.27875 -0.875 5.9375 C-2 8 -2 8 -4 9 C-3.35455571 5.51460083 -1.89865603 2.97180943 0 0 Z " fill="#C0C0C0" transform="translate(173,322)"/>
<path d="M0 0 C0 3 0 3 -1.3125 4.38671875 C-2.875 5.59114583 -4.4375 6.79557292 -6 8 C-6.66 7.67 -7.32 7.34 -8 7 C-6.625 5.5 -6.625 5.5 -5 4 C-4.34 4 -3.68 4 -3 4 C-3 3.34 -3 2.68 -3 2 C-2.01 1.34 -1.02 0.68 0 0 Z " fill="#ACACAC" transform="translate(316,315)"/>
<path d="M0 0 C-0.804375 0.28875 -1.60875 0.5775 -2.4375 0.875 C-5.1326468 1.73262568 -5.1326468 1.73262568 -6 4 C-6 3.34 -6 2.68 -6 2 C-7.65 2 -9.3 2 -11 2 C-6.99642627 -0.14477164 -4.43233175 -1.47744392 0 0 Z " fill="#BCBBBD" transform="translate(240,224)"/>
<path d="M0 0 C2.31 0.66 4.62 1.32 7 2 C4.08235 3.9451 2.37462715 4.45276317 -1 5 C-0.67 3.35 -0.34 1.7 0 0 Z " fill="#C0C0C2" transform="translate(222,164)"/>
<path d="M0 0 C1.32 0.66 2.64 1.32 4 2 C2.35 3.32 0.7 4.64 -1 6 C-1.33 4.68 -1.66 3.36 -2 2 C-1.34 2 -0.68 2 0 2 C0 1.34 0 0.68 0 0 Z " fill="#C3C3C3" transform="translate(328,338)"/>
<path d="M0 0 C0.99 0.33 1.98 0.66 3 1 C2.01 1.495 2.01 1.495 1 2 C1 2.66 1 3.32 1 4 C-0.98 4.99 -0.98 4.99 -3 6 C-3 4.68 -3 3.36 -3 2 C-2.01 1.34 -1.02 0.68 0 0 Z " fill="#C9C9C9" transform="translate(206,308)"/>
</svg>
